<mxfile host="app.diagrams.net" modified="2022-10-11T16:48:11.816Z" agent="5.0 (Windows NT 10.0; Win64; x64) AppleWebKit/537.36 (KHTML, like Gecko) Chrome/105.0.0.0 Safari/537.36" etag="KVqcAvZdYekiI6yD9HIW" version="20.4.0" type="github">
  <diagram name="Page-1" id="74e2e168-ea6b-b213-b513-2b3c1d86103e">
    <mxGraphModel dx="1038" dy="547" grid="0" gridSize="10" guides="1" tooltips="1" connect="1" arrows="1" fold="1" page="1" pageScale="1" pageWidth="1100" pageHeight="850" background="none" math="0" shadow="0">
      <root>
        <mxCell id="0" />
        <mxCell id="1" parent="0" />
        <mxCell id="77e6c97f196da883-1" value="电商支付流程" style="swimlane;html=1;childLayout=stackLayout;startSize=20;rounded=0;shadow=0;labelBackgroundColor=none;strokeWidth=1;fontFamily=Verdana;fontSize=8;align=center;" parent="1" vertex="1">
          <mxGeometry x="60" y="10" width="640" height="740" as="geometry">
            <mxRectangle x="70" y="60" width="70" height="30" as="alternateBounds" />
          </mxGeometry>
        </mxCell>
        <mxCell id="77e6c97f196da883-2" value="用户" style="swimlane;html=1;startSize=20;" parent="77e6c97f196da883-1" vertex="1">
          <mxGeometry y="20" width="160" height="720" as="geometry" />
        </mxCell>
        <mxCell id="7MChvlVh8LZ_ZZHoo5p0-2" value="开始购物" style="ellipse;whiteSpace=wrap;html=1;" vertex="1" parent="77e6c97f196da883-2">
          <mxGeometry x="30" y="30" width="90" height="50" as="geometry" />
        </mxCell>
        <mxCell id="7MChvlVh8LZ_ZZHoo5p0-3" value="提交订单" style="rounded=1;whiteSpace=wrap;html=1;shadow=0;labelBackgroundColor=none;strokeWidth=1;fontFamily=Verdana;fontSize=8;align=center;" vertex="1" parent="77e6c97f196da883-2">
          <mxGeometry x="35" y="120" width="80" height="45" as="geometry" />
        </mxCell>
        <mxCell id="7MChvlVh8LZ_ZZHoo5p0-4" value="" style="endArrow=classic;html=1;rounded=0;exitX=0.5;exitY=1;exitDx=0;exitDy=0;entryX=0.5;entryY=0;entryDx=0;entryDy=0;" edge="1" parent="77e6c97f196da883-2" source="7MChvlVh8LZ_ZZHoo5p0-2" target="7MChvlVh8LZ_ZZHoo5p0-3">
          <mxGeometry width="50" height="50" relative="1" as="geometry">
            <mxPoint x="430" y="230" as="sourcePoint" />
            <mxPoint x="480" y="180" as="targetPoint" />
          </mxGeometry>
        </mxCell>
        <mxCell id="7MChvlVh8LZ_ZZHoo5p0-8" value="获得订单信息" style="rounded=1;whiteSpace=wrap;html=1;shadow=0;labelBackgroundColor=none;strokeWidth=1;fontFamily=Verdana;fontSize=8;align=center;" vertex="1" parent="77e6c97f196da883-2">
          <mxGeometry x="35" y="200" width="80" height="45" as="geometry" />
        </mxCell>
        <mxCell id="7MChvlVh8LZ_ZZHoo5p0-15" value="发起支付请求" style="rounded=1;whiteSpace=wrap;html=1;shadow=0;labelBackgroundColor=none;strokeWidth=1;fontFamily=Verdana;fontSize=8;align=center;" vertex="1" parent="77e6c97f196da883-2">
          <mxGeometry x="35" y="280" width="80" height="45" as="geometry" />
        </mxCell>
        <mxCell id="7MChvlVh8LZ_ZZHoo5p0-16" value="" style="endArrow=classic;html=1;rounded=0;exitX=0.5;exitY=1;exitDx=0;exitDy=0;entryX=0.5;entryY=0;entryDx=0;entryDy=0;" edge="1" parent="77e6c97f196da883-2" source="7MChvlVh8LZ_ZZHoo5p0-8" target="7MChvlVh8LZ_ZZHoo5p0-15">
          <mxGeometry width="50" height="50" relative="1" as="geometry">
            <mxPoint x="430" y="230" as="sourcePoint" />
            <mxPoint x="480" y="180" as="targetPoint" />
          </mxGeometry>
        </mxCell>
        <mxCell id="7MChvlVh8LZ_ZZHoo5p0-21" value="获得收银台信息" style="rounded=1;whiteSpace=wrap;html=1;shadow=0;labelBackgroundColor=none;strokeWidth=1;fontFamily=Verdana;fontSize=8;align=center;" vertex="1" parent="77e6c97f196da883-2">
          <mxGeometry x="35" y="360" width="80" height="45" as="geometry" />
        </mxCell>
        <mxCell id="7MChvlVh8LZ_ZZHoo5p0-25" value="是否交易" style="rhombus;whiteSpace=wrap;html=1;" vertex="1" parent="77e6c97f196da883-2">
          <mxGeometry x="35" y="430" width="80" height="60" as="geometry" />
        </mxCell>
        <mxCell id="7MChvlVh8LZ_ZZHoo5p0-26" value="" style="endArrow=classic;html=1;rounded=0;exitX=0.5;exitY=1;exitDx=0;exitDy=0;entryX=0.5;entryY=0;entryDx=0;entryDy=0;" edge="1" parent="77e6c97f196da883-2" source="7MChvlVh8LZ_ZZHoo5p0-21" target="7MChvlVh8LZ_ZZHoo5p0-25">
          <mxGeometry width="50" height="50" relative="1" as="geometry">
            <mxPoint x="430" y="430" as="sourcePoint" />
            <mxPoint x="480" y="380" as="targetPoint" />
          </mxGeometry>
        </mxCell>
        <mxCell id="7MChvlVh8LZ_ZZHoo5p0-28" value="结束购物" style="ellipse;whiteSpace=wrap;html=1;" vertex="1" parent="77e6c97f196da883-2">
          <mxGeometry x="33" y="660" width="90" height="50" as="geometry" />
        </mxCell>
        <mxCell id="7MChvlVh8LZ_ZZHoo5p0-29" value="" style="endArrow=classic;html=1;rounded=0;exitX=0;exitY=0.5;exitDx=0;exitDy=0;entryX=0;entryY=0.5;entryDx=0;entryDy=0;" edge="1" parent="77e6c97f196da883-2" source="7MChvlVh8LZ_ZZHoo5p0-25" target="7MChvlVh8LZ_ZZHoo5p0-28">
          <mxGeometry width="50" height="50" relative="1" as="geometry">
            <mxPoint x="440" y="550" as="sourcePoint" />
            <mxPoint x="20" y="560" as="targetPoint" />
            <Array as="points">
              <mxPoint x="10" y="460" />
              <mxPoint x="10" y="645" />
              <mxPoint x="10" y="685" />
            </Array>
          </mxGeometry>
        </mxCell>
        <mxCell id="7MChvlVh8LZ_ZZHoo5p0-30" value="否" style="edgeLabel;html=1;align=center;verticalAlign=middle;resizable=0;points=[];" vertex="1" connectable="0" parent="7MChvlVh8LZ_ZZHoo5p0-29">
          <mxGeometry x="0.2358" y="1" relative="1" as="geometry">
            <mxPoint as="offset" />
          </mxGeometry>
        </mxCell>
        <mxCell id="7MChvlVh8LZ_ZZHoo5p0-23" value="选择银行发起支付" style="rounded=1;whiteSpace=wrap;html=1;shadow=0;labelBackgroundColor=none;strokeWidth=1;fontFamily=Verdana;fontSize=8;align=center;" vertex="1" parent="77e6c97f196da883-2">
          <mxGeometry x="35" y="518" width="80" height="45" as="geometry" />
        </mxCell>
        <mxCell id="7MChvlVh8LZ_ZZHoo5p0-31" value="" style="endArrow=classic;html=1;rounded=0;entryX=0.5;entryY=0;entryDx=0;entryDy=0;exitX=0.5;exitY=1;exitDx=0;exitDy=0;" edge="1" parent="77e6c97f196da883-2" source="7MChvlVh8LZ_ZZHoo5p0-25" target="7MChvlVh8LZ_ZZHoo5p0-23">
          <mxGeometry width="50" height="50" relative="1" as="geometry">
            <mxPoint x="120" y="460" as="sourcePoint" />
            <mxPoint x="490" y="500" as="targetPoint" />
            <Array as="points">
              <mxPoint x="75" y="500" />
            </Array>
          </mxGeometry>
        </mxCell>
        <mxCell id="7MChvlVh8LZ_ZZHoo5p0-33" value="是" style="edgeLabel;html=1;align=center;verticalAlign=middle;resizable=0;points=[];" vertex="1" connectable="0" parent="7MChvlVh8LZ_ZZHoo5p0-31">
          <mxGeometry x="0.296" y="-2" relative="1" as="geometry">
            <mxPoint as="offset" />
          </mxGeometry>
        </mxCell>
        <mxCell id="7MChvlVh8LZ_ZZHoo5p0-40" value="展示支付结果" style="rounded=1;whiteSpace=wrap;html=1;shadow=0;labelBackgroundColor=none;strokeWidth=1;fontFamily=Verdana;fontSize=8;align=center;" vertex="1" parent="77e6c97f196da883-2">
          <mxGeometry x="35" y="596" width="80" height="45" as="geometry" />
        </mxCell>
        <mxCell id="7MChvlVh8LZ_ZZHoo5p0-43" value="" style="endArrow=classic;html=1;rounded=0;exitX=0.5;exitY=1;exitDx=0;exitDy=0;" edge="1" parent="77e6c97f196da883-2" source="7MChvlVh8LZ_ZZHoo5p0-40" target="7MChvlVh8LZ_ZZHoo5p0-28">
          <mxGeometry width="50" height="50" relative="1" as="geometry">
            <mxPoint x="440" y="606" as="sourcePoint" />
            <mxPoint x="490" y="556" as="targetPoint" />
          </mxGeometry>
        </mxCell>
        <mxCell id="77e6c97f196da883-3" value="电商系统" style="swimlane;html=1;startSize=20;" parent="77e6c97f196da883-1" vertex="1">
          <mxGeometry x="160" y="20" width="160" height="720" as="geometry" />
        </mxCell>
        <mxCell id="7MChvlVh8LZ_ZZHoo5p0-5" value="生成订单" style="rounded=1;whiteSpace=wrap;html=1;shadow=0;labelBackgroundColor=none;strokeWidth=1;fontFamily=Verdana;fontSize=8;align=center;" vertex="1" parent="77e6c97f196da883-3">
          <mxGeometry x="30" y="120" width="80" height="45" as="geometry" />
        </mxCell>
        <mxCell id="77e6c97f196da883-4" value="支付系统" style="swimlane;html=1;startSize=20;" parent="77e6c97f196da883-1" vertex="1">
          <mxGeometry x="320" y="20" width="160" height="720" as="geometry" />
        </mxCell>
        <mxCell id="7MChvlVh8LZ_ZZHoo5p0-17" value="发起支付请求" style="rounded=1;whiteSpace=wrap;html=1;shadow=0;labelBackgroundColor=none;strokeWidth=1;fontFamily=Verdana;fontSize=8;align=center;" vertex="1" parent="77e6c97f196da883-4">
          <mxGeometry x="40" y="280" width="80" height="45" as="geometry" />
        </mxCell>
        <mxCell id="7MChvlVh8LZ_ZZHoo5p0-19" value="处理支付请求" style="rounded=1;whiteSpace=wrap;html=1;shadow=0;labelBackgroundColor=none;strokeWidth=1;fontFamily=Verdana;fontSize=8;align=center;" vertex="1" parent="77e6c97f196da883-4">
          <mxGeometry x="40" y="360" width="80" height="45" as="geometry" />
        </mxCell>
        <mxCell id="7MChvlVh8LZ_ZZHoo5p0-20" value="" style="endArrow=classic;html=1;rounded=0;exitX=0.5;exitY=1;exitDx=0;exitDy=0;" edge="1" parent="77e6c97f196da883-4" source="7MChvlVh8LZ_ZZHoo5p0-17" target="7MChvlVh8LZ_ZZHoo5p0-19">
          <mxGeometry width="50" height="50" relative="1" as="geometry">
            <mxPoint x="110" y="230" as="sourcePoint" />
            <mxPoint x="160" y="180" as="targetPoint" />
          </mxGeometry>
        </mxCell>
        <mxCell id="7MChvlVh8LZ_ZZHoo5p0-37" value="支付结果" style="rounded=1;whiteSpace=wrap;html=1;shadow=0;labelBackgroundColor=none;strokeWidth=1;fontFamily=Verdana;fontSize=8;align=center;" vertex="1" parent="77e6c97f196da883-4">
          <mxGeometry x="30" y="596" width="80" height="45" as="geometry" />
        </mxCell>
        <mxCell id="7MChvlVh8LZ_ZZHoo5p0-35" value="" style="endArrow=classic;html=1;rounded=0;exitX=1;exitY=0.5;exitDx=0;exitDy=0;entryX=0;entryY=0.5;entryDx=0;entryDy=0;" edge="1" parent="77e6c97f196da883-1" source="7MChvlVh8LZ_ZZHoo5p0-23" target="7MChvlVh8LZ_ZZHoo5p0-24">
          <mxGeometry width="50" height="50" relative="1" as="geometry">
            <mxPoint x="440" y="578" as="sourcePoint" />
            <mxPoint x="490" y="528" as="targetPoint" />
          </mxGeometry>
        </mxCell>
        <mxCell id="77e6c97f196da883-5" value="银行" style="swimlane;html=1;startSize=20;" parent="77e6c97f196da883-1" vertex="1">
          <mxGeometry x="480" y="20" width="160" height="720" as="geometry" />
        </mxCell>
        <mxCell id="7MChvlVh8LZ_ZZHoo5p0-24" value="密钥解析" style="rounded=1;whiteSpace=wrap;html=1;shadow=0;labelBackgroundColor=none;strokeWidth=1;fontFamily=Verdana;fontSize=8;align=center;" vertex="1" parent="77e6c97f196da883-5">
          <mxGeometry x="30" y="518" width="80" height="45" as="geometry" />
        </mxCell>
        <mxCell id="7MChvlVh8LZ_ZZHoo5p0-34" value="生成支付单" style="rounded=1;whiteSpace=wrap;html=1;shadow=0;labelBackgroundColor=none;strokeWidth=1;fontFamily=Verdana;fontSize=8;align=center;" vertex="1" parent="77e6c97f196da883-5">
          <mxGeometry x="30" y="596" width="80" height="45" as="geometry" />
        </mxCell>
        <mxCell id="7MChvlVh8LZ_ZZHoo5p0-36" value="" style="endArrow=classic;html=1;rounded=0;exitX=0.5;exitY=1;exitDx=0;exitDy=0;entryX=0.5;entryY=0;entryDx=0;entryDy=0;" edge="1" parent="77e6c97f196da883-5" source="7MChvlVh8LZ_ZZHoo5p0-24" target="7MChvlVh8LZ_ZZHoo5p0-34">
          <mxGeometry width="50" height="50" relative="1" as="geometry">
            <mxPoint x="-40" y="580" as="sourcePoint" />
            <mxPoint x="10" y="530" as="targetPoint" />
          </mxGeometry>
        </mxCell>
        <mxCell id="7MChvlVh8LZ_ZZHoo5p0-7" value="" style="endArrow=classic;html=1;rounded=0;exitX=1;exitY=0.5;exitDx=0;exitDy=0;entryX=0;entryY=0.5;entryDx=0;entryDy=0;" edge="1" parent="77e6c97f196da883-1" source="7MChvlVh8LZ_ZZHoo5p0-3" target="7MChvlVh8LZ_ZZHoo5p0-5">
          <mxGeometry width="50" height="50" relative="1" as="geometry">
            <mxPoint x="430" y="250" as="sourcePoint" />
            <mxPoint x="480" y="200" as="targetPoint" />
          </mxGeometry>
        </mxCell>
        <mxCell id="7MChvlVh8LZ_ZZHoo5p0-9" value="" style="endArrow=classic;html=1;rounded=0;exitX=0.5;exitY=1;exitDx=0;exitDy=0;entryX=0.5;entryY=0;entryDx=0;entryDy=0;" edge="1" parent="77e6c97f196da883-1" source="7MChvlVh8LZ_ZZHoo5p0-5" target="7MChvlVh8LZ_ZZHoo5p0-8">
          <mxGeometry width="50" height="50" relative="1" as="geometry">
            <mxPoint x="430" y="250" as="sourcePoint" />
            <mxPoint x="230" y="180" as="targetPoint" />
            <Array as="points">
              <mxPoint x="230" y="200" />
              <mxPoint x="75" y="200" />
            </Array>
          </mxGeometry>
        </mxCell>
        <mxCell id="7MChvlVh8LZ_ZZHoo5p0-18" value="" style="endArrow=classic;html=1;rounded=0;exitX=1;exitY=0.5;exitDx=0;exitDy=0;" edge="1" parent="77e6c97f196da883-1" source="7MChvlVh8LZ_ZZHoo5p0-15" target="7MChvlVh8LZ_ZZHoo5p0-17">
          <mxGeometry width="50" height="50" relative="1" as="geometry">
            <mxPoint x="430" y="250" as="sourcePoint" />
            <mxPoint x="480" y="200" as="targetPoint" />
          </mxGeometry>
        </mxCell>
        <mxCell id="7MChvlVh8LZ_ZZHoo5p0-22" value="" style="endArrow=classic;html=1;rounded=0;exitX=0;exitY=0.5;exitDx=0;exitDy=0;entryX=1;entryY=0.5;entryDx=0;entryDy=0;" edge="1" parent="77e6c97f196da883-1" source="7MChvlVh8LZ_ZZHoo5p0-19" target="7MChvlVh8LZ_ZZHoo5p0-21">
          <mxGeometry width="50" height="50" relative="1" as="geometry">
            <mxPoint x="430" y="250" as="sourcePoint" />
            <mxPoint x="480" y="200" as="targetPoint" />
          </mxGeometry>
        </mxCell>
        <mxCell id="7MChvlVh8LZ_ZZHoo5p0-38" value="" style="endArrow=classic;html=1;rounded=0;exitX=0;exitY=0.5;exitDx=0;exitDy=0;entryX=1;entryY=0.5;entryDx=0;entryDy=0;" edge="1" parent="77e6c97f196da883-1" source="7MChvlVh8LZ_ZZHoo5p0-34" target="7MChvlVh8LZ_ZZHoo5p0-37">
          <mxGeometry width="50" height="50" relative="1" as="geometry">
            <mxPoint x="440" y="576" as="sourcePoint" />
            <mxPoint x="490" y="526" as="targetPoint" />
          </mxGeometry>
        </mxCell>
        <mxCell id="7MChvlVh8LZ_ZZHoo5p0-41" value="" style="endArrow=classic;html=1;rounded=0;exitX=0;exitY=0.5;exitDx=0;exitDy=0;entryX=1;entryY=0.5;entryDx=0;entryDy=0;" edge="1" parent="77e6c97f196da883-1" source="7MChvlVh8LZ_ZZHoo5p0-37" target="7MChvlVh8LZ_ZZHoo5p0-40">
          <mxGeometry width="50" height="50" relative="1" as="geometry">
            <mxPoint x="440" y="616" as="sourcePoint" />
            <mxPoint x="490" y="566" as="targetPoint" />
          </mxGeometry>
        </mxCell>
      </root>
    </mxGraphModel>
  </diagram>
</mxfile>
